<?xml version="1.0" encoding="UTF-8" standalone="no"?>
<svg
   xmlns:dc="http://purl.org/dc/elements/1.1/"
   xmlns:cc="http://creativecommons.org/ns#"
   xmlns:rdf="http://www.w3.org/1999/02/22-rdf-syntax-ns#"
   xmlns:svg="http://www.w3.org/2000/svg"
   xmlns="http://www.w3.org/2000/svg"
   xmlns:sodipodi="http://sodipodi.sourceforge.net/DTD/sodipodi-0.dtd"
   xmlns:inkscape="http://www.inkscape.org/namespaces/inkscape"
   width="756mm"
   height="603mm"
   viewBox="0 0 756 603"
   version="1.1"
   preserveAspectRatio="xMidYMid meet"
   id="svg15"
   sodipodi:docname="mamontov.svg"
   inkscape:version="0.92.4 (5da689c313, 2019-01-14)">
  <metadata
     id="metadata21">
    <rdf:RDF>
      <cc:Work
         rdf:about="">
        <dc:format>image/svg+xml</dc:format>
        <dc:type
           rdf:resource="http://purl.org/dc/dcmitype/StillImage" />
        <dc:title></dc:title>
      </cc:Work>
    </rdf:RDF>
  </metadata>
  <defs
     id="defs19" />
  <sodipodi:namedview
     pagecolor="#ffffff"
     bordercolor="#666666"
     borderopacity="1"
     objecttolerance="10"
     gridtolerance="10"
     guidetolerance="10"
     inkscape:pageopacity="0"
     inkscape:pageshadow="2"
     inkscape:window-width="1920"
     inkscape:window-height="1080"
     id="namedview17"
     showgrid="false"
     inkscape:zoom="0.2928884"
     inkscape:cx="1178.5516"
     inkscape:cy="1195.4999"
     inkscape:window-x="0"
     inkscape:window-y="0"
     inkscape:window-maximized="1"
     inkscape:current-layer="svg15" />
  <path
     inkscape:connector-curvature="0"
     style="font-size:12px;vector-effect:non-scaling-stroke;fill:none;fill-rule:evenodd;stroke:#000000;stroke-width:0.26458333;stroke-linecap:round;stroke-opacity:1;stroke-miterlimit:4;stroke-dasharray:none"
     id="front_outsideCutPath"
     d="m 0,303 v 18.375 h 3 v 9.75 H 0 v 9.75 h 3 v 9.75 H 0 v 9.75 h 3 v 9.75 H 0 v 9.75 h 3 v 9.75 H 0 v 9.75 h 3 v 9.75 H 0 v 9.75 h 3 v 9.75 H 0 v 9.75 h 3 v 9.75 H 0 v 9.75 h 3 v 9.75 H 0 v 9.75 h 3 v 9.75 H 0 v 9.75 h 3 v 9.75 H 0 v 9.75 h 3 v 9.75 H 0 v 9.75 h 3 v 9.75 H 0 v 9.75 h 3 v 9.75 H 0 v 9.75 h 3 v 9.75 H 0 v 9.75 8.625 h 18.375 v -3 h 9.75 v 3 h 9.75 v -3 h 9.75 v 3 h 9.75 v -3 h 9.75 v 3 h 9.75 v -3 h 9.75 v 3 h 9.75 v -3 h 9.75 v 3 h 9.75 v -3 h 9.75 v 3 h 9.75 v -3 h 9.75 v 3 h 9.75 v -3 h 9.75 v 3 h 9.75 v -3 h 9.75 v 3 h 9.75 v -3 h 9.75 v 3 h 9.75 v -3 h 9.75 v 3 h 9.75 v -3 h 9.75 v 3 h 9.75 v -3 h 9.75 v 3 h 9.75 v -3 h 9.75 v 3 h 9.75 8.625 v -18.375 h -3 v -9.75 h 3 v -9.75 h -3 v -9.75 h 3 v -9.75 h -3 v -9.75 h 3 v -9.75 h -3 v -9.75 h 3 v -9.75 h -3 v -9.75 h 3 v -9.75 h -3 v -9.75 h 3 v -9.75 h -3 v -9.75 h 3 v -9.75 h -3 v -9.75 h 3 v -9.75 h -3 v -9.75 h 3 v -9.75 h -3 v -9.75 h 3 v -9.75 h -3 v -9.75 h 3 v -9.75 h -3 v -9.75 h 3 v -9.75 h -3 v -9.75 h 3 v -9.75 h -3 v -9.75 h 3 V 311.625 303 h -18.375 v 3 h -9.75 v -3 h -9.75 v 3 h -9.75 v -3 h -9.75 v 3 h -9.75 v -3 h -9.75 v 3 h -9.75 v -3 h -9.75 v 3 h -9.75 v -3 h -9.75 v 3 h -9.75 v -3 h -9.75 v 3 h -9.75 v -3 h -9.75 v 3 h -9.75 v -3 h -9.75 v 3 h -9.75 v -3 h -9.75 v 3 h -9.75 v -3 h -9.75 v 3 h -9.75 v -3 h -9.75 v 3 h -9.75 v -3 h -9.75 v 3 h -9.75 v -3 h -9.75 v 3 h -9.75 v -3 h -9.75 z" />
  <path
     inkscape:connector-curvature="0"
     style="font-size:12px;vector-effect:non-scaling-stroke;fill:none;fill-rule:evenodd;stroke:#000000;stroke-width:0.26458333;stroke-linecap:round;stroke-opacity:1;stroke-miterlimit:4;stroke-dasharray:none"
     id="left_outsideCutPath"
     d="m 306,303 v 18.375 h -3 v 9.75 h 3 v 9.75 h -3 v 9.75 h 3 v 9.75 h -3 v 9.75 h 3 v 9.75 h -3 v 9.75 h 3 v 9.75 h -3 v 9.75 h 3 v 9.75 h -3 v 9.75 h 3 v 9.75 h -3 v 9.75 h 3 v 9.75 h -3 v 9.75 h 3 v 9.75 h -3 v 9.75 h 3 v 9.75 h -3 v 9.75 h 3 v 9.75 h -3 v 9.75 h 3 v 9.75 h -3 v 9.75 h 3 v 9.75 h -3 v 9.75 h 3 v 9.75 h -3 v 9.75 h 3 v 9.75 8.625 h 8.625 v -3 h 9.75 v 3 h 9.75 v -3 h 9.75 v 3 h 9.75 v -3 h 9.75 v 3 h 9.75 v -3 h 9.75 v 3 h 9.75 v -3 h 9.75 v 3 h 9.75 v -3 h 9.75 v 3 h 9.75 v -3 h 9.75 v 3 H 450 v -18.375 h 3 v -9.75 h -3 v -9.75 h 3 v -9.75 h -3 v -9.75 h 3 v -9.75 h -3 v -9.75 h 3 v -9.75 h -3 v -9.75 h 3 v -9.75 h -3 v -9.75 h 3 v -9.75 h -3 v -9.75 h 3 v -9.75 h -3 v -9.75 h 3 v -9.75 h -3 v -9.75 h 3 v -9.75 h -3 v -9.75 h 3 v -9.75 h -3 v -9.75 h 3 v -9.75 h -3 v -9.75 h 3 v -9.75 h -3 v -9.75 h 3 v -9.75 h -3 v -9.75 h 3 v -9.75 h -3 V 311.625 303 h -8.625 v 3 h -9.75 v -3 h -9.75 v 3 h -9.75 v -3 h -9.75 v 3 h -9.75 v -3 h -9.75 v 3 h -9.75 v -3 h -9.75 v 3 h -9.75 v -3 h -9.75 v 3 h -9.75 v -3 h -9.75 v 3 h -9.75 v -3 z" />
  <path
     inkscape:connector-curvature="0"
     style="font-size:12px;vector-effect:non-scaling-stroke;fill:none;fill-rule:evenodd;stroke:#000000;stroke-width:0.26458333;stroke-linecap:round;stroke-opacity:1;stroke-miterlimit:4;stroke-dasharray:none"
     id="top_outsideCutPath"
     d="m 459,456 v 8.625 h -3 v 9.75 h 3 v 9.75 h -3 v 9.75 h 3 v 9.75 h -3 v 9.75 h 3 v 9.75 h -3 v 9.75 h 3 v 9.75 h -3 v 9.75 h 3 v 9.75 h -3 v 9.75 h 3 v 9.75 h -3 v 9.75 h 3 V 600 h 15.375 v 3 h 9.75 v -3 h 9.75 v 3 h 9.75 v -3 h 9.75 v 3 h 9.75 v -3 h 9.75 v 3 h 9.75 v -3 h 9.75 v 3 h 9.75 v -3 h 9.75 v 3 h 9.75 v -3 h 9.75 v 3 h 9.75 v -3 h 9.75 v 3 h 9.75 v -3 h 9.75 v 3 h 9.75 v -3 h 9.75 v 3 h 9.75 v -3 h 9.75 v 3 h 9.75 v -3 h 9.75 v 3 h 9.75 v -3 h 9.75 v 3 h 9.75 v -3 h 9.75 v 3 h 9.75 v -3 h 9.75 5.625 v -8.625 h 3 v -9.75 h -3 v -9.75 h 3 v -9.75 h -3 v -9.75 h 3 v -9.75 h -3 v -9.75 h 3 v -9.75 h -3 v -9.75 h 3 v -9.75 h -3 v -9.75 h 3 v -9.75 h -3 v -9.75 h 3 v -9.75 h -3 V 456 h -15.375 v -3 h -9.75 v 3 h -9.75 v -3 h -9.75 v 3 h -9.75 v -3 h -9.75 v 3 h -9.75 v -3 h -9.75 v 3 h -9.75 v -3 h -9.75 v 3 h -9.75 v -3 h -9.75 v 3 h -9.75 v -3 h -9.75 v 3 h -9.75 v -3 h -9.75 v 3 h -9.75 v -3 h -9.75 v 3 h -9.75 v -3 h -9.75 v 3 h -9.75 v -3 h -9.75 v 3 h -9.75 v -3 h -9.75 v 3 h -9.75 v -3 h -9.75 v 3 h -9.75 v -3 h -9.75 v 3 h -9.75 z" />
  <path
     inkscape:connector-curvature="0"
     style="font-size:12px;vector-effect:non-scaling-stroke;fill:none;fill-rule:evenodd;stroke:#000000;stroke-width:0.26458333;stroke-linecap:round;stroke-opacity:1;stroke-miterlimit:4;stroke-dasharray:none"
     id="back_outsideCutPath"
     d="m 0,0 v 18.375 h 3 v 9.75 H 0 v 9.75 h 3 v 9.75 H 0 v 9.75 h 3 v 9.75 H 0 v 9.75 h 3 v 9.75 H 0 v 9.75 h 3 v 9.75 H 0 v 9.75 h 3 v 9.75 H 0 v 9.75 h 3 v 9.75 H 0 v 9.75 h 3 v 9.75 H 0 v 9.75 h 3 v 9.75 H 0 v 9.75 h 3 v 9.75 H 0 v 9.75 h 3 v 9.75 H 0 v 9.75 h 3 v 9.75 H 0 v 9.75 h 3 v 9.75 H 0 v 9.75 h 3 v 9.75 H 0 v 9.75 8.625 h 18.375 v -3 h 9.75 v 3 h 9.75 v -3 h 9.75 v 3 h 9.75 v -3 h 9.75 v 3 h 9.75 v -3 h 9.75 v 3 h 9.75 v -3 h 9.75 v 3 h 9.75 v -3 h 9.75 v 3 h 9.75 v -3 h 9.75 v 3 h 9.75 v -3 h 9.75 v 3 h 9.75 v -3 h 9.75 v 3 h 9.75 v -3 h 9.75 v 3 h 9.75 v -3 h 9.75 v 3 h 9.75 v -3 h 9.75 v 3 h 9.75 v -3 h 9.75 v 3 h 9.75 v -3 h 9.75 v 3 h 9.75 8.625 v -18.375 h -3 v -9.75 h 3 v -9.75 h -3 v -9.75 h 3 v -9.75 h -3 v -9.75 h 3 v -9.75 h -3 v -9.75 h 3 v -9.75 h -3 v -9.75 h 3 v -9.75 h -3 v -9.75 h 3 v -9.75 h -3 v -9.75 h 3 v -9.75 h -3 v -9.75 h 3 v -9.75 h -3 v -9.75 h 3 v -9.75 h -3 v -9.75 h 3 v -9.75 h -3 v -9.75 h 3 v -9.75 h -3 v -9.75 h 3 v -9.75 h -3 v -9.75 h 3 v -9.75 h -3 v -9.75 h 3 V 8.625 0 h -18.375 v 3 h -9.75 V 0 h -9.75 v 3 h -9.75 V 0 h -9.75 v 3 h -9.75 V 0 h -9.75 v 3 h -9.75 V 0 h -9.75 v 3 h -9.75 V 0 h -9.75 v 3 h -9.75 V 0 h -9.75 v 3 h -9.75 V 0 h -9.75 v 3 h -9.75 V 0 h -9.75 v 3 h -9.75 V 0 h -9.75 v 3 h -9.75 V 0 h -9.75 v 3 h -9.75 V 0 h -9.75 v 3 h -9.75 V 0 h -9.75 v 3 h -9.75 V 0 h -9.75 v 3 h -9.75 V 0 h -9.75 z" />
  <path
     inkscape:connector-curvature="0"
     style="font-size:12px;vector-effect:non-scaling-stroke;fill:none;fill-rule:evenodd;stroke:#000000;stroke-width:0.26458333;stroke-linecap:round;stroke-opacity:1;stroke-miterlimit:4;stroke-dasharray:none"
     id="right_outsideCutPath"
     d="m 306,0 v 18.375 h -3 v 9.75 h 3 v 9.75 h -3 v 9.75 h 3 v 9.75 h -3 v 9.75 h 3 v 9.75 h -3 v 9.75 h 3 v 9.75 h -3 v 9.75 h 3 v 9.75 h -3 v 9.75 h 3 v 9.75 h -3 v 9.75 h 3 v 9.75 h -3 v 9.75 h 3 v 9.75 h -3 v 9.75 h 3 v 9.75 h -3 v 9.75 h 3 v 9.75 h -3 v 9.75 h 3 v 9.75 h -3 v 9.75 h 3 v 9.75 h -3 v 9.75 h 3 v 9.75 h -3 v 9.75 h 3 v 9.75 8.625 h 8.625 v -3 h 9.75 v 3 h 9.75 v -3 h 9.75 v 3 h 9.75 v -3 h 9.75 v 3 h 9.75 v -3 h 9.75 v 3 h 9.75 v -3 h 9.75 v 3 h 9.75 v -3 h 9.75 v 3 h 9.75 v -3 h 9.75 v 3 H 450 v -18.375 h 3 v -9.75 h -3 v -9.75 h 3 v -9.75 h -3 v -9.75 h 3 v -9.75 h -3 v -9.75 h 3 v -9.75 h -3 v -9.75 h 3 v -9.75 h -3 v -9.75 h 3 v -9.75 h -3 v -9.75 h 3 v -9.75 h -3 v -9.75 h 3 v -9.75 h -3 v -9.75 h 3 v -9.75 h -3 v -9.75 h 3 v -9.75 h -3 v -9.75 h 3 v -9.75 h -3 v -9.75 h 3 v -9.75 h -3 v -9.75 h 3 v -9.75 h -3 v -9.75 h 3 v -9.75 h -3 V 8.625 0 h -8.625 v 3 h -9.75 V 0 h -9.75 v 3 h -9.75 V 0 h -9.75 v 3 h -9.75 V 0 h -9.75 v 3 h -9.75 V 0 h -9.75 v 3 h -9.75 V 0 h -9.75 v 3 h -9.75 V 0 h -9.75 v 3 h -9.75 V 0 Z" />
  <path
     inkscape:connector-curvature="0"
     style="font-size:12px;vector-effect:non-scaling-stroke;fill:none;fill-rule:evenodd;stroke:#000000;stroke-width:0.26458333;stroke-linecap:round;stroke-opacity:1;stroke-miterlimit:4;stroke-dasharray:none"
     id="bottom_outsideCutPath"
     d="m 459,303 v 8.625 h -3 v 9.75 h 3 v 9.75 h -3 v 9.75 h 3 v 9.75 h -3 v 9.75 h 3 v 9.75 h -3 v 9.75 h 3 v 9.75 h -3 v 9.75 h 3 v 9.75 h -3 v 9.75 h 3 v 9.75 h -3 v 9.75 h 3 V 447 h 15.375 v 3 h 9.75 v -3 h 9.75 v 3 h 9.75 v -3 h 9.75 v 3 h 9.75 v -3 h 9.75 v 3 h 9.75 v -3 h 9.75 v 3 h 9.75 v -3 h 9.75 v 3 h 9.75 v -3 h 9.75 v 3 h 9.75 v -3 h 9.75 v 3 h 9.75 v -3 h 9.75 v 3 h 9.75 v -3 h 9.75 v 3 h 9.75 v -3 h 9.75 v 3 h 9.75 v -3 h 9.75 v 3 h 9.75 v -3 h 9.75 v 3 h 9.75 v -3 h 9.75 v 3 h 9.75 v -3 h 9.75 5.625 v -8.625 h 3 v -9.75 h -3 v -9.75 h 3 v -9.75 h -3 v -9.75 h 3 v -9.75 h -3 v -9.75 h 3 v -9.75 h -3 v -9.75 h 3 v -9.75 h -3 v -9.75 h 3 v -9.75 h -3 v -9.75 h 3 v -9.75 h -3 V 303 h -15.375 v -3 h -9.75 v 3 h -9.75 v -3 h -9.75 v 3 h -9.75 v -3 h -9.75 v 3 h -9.75 v -3 h -9.75 v 3 h -9.75 v -3 h -9.75 v 3 h -9.75 v -3 h -9.75 v 3 h -9.75 v -3 h -9.75 v 3 h -9.75 v -3 h -9.75 v 3 h -9.75 v -3 h -9.75 v 3 h -9.75 v -3 h -9.75 v 3 h -9.75 v -3 h -9.75 v 3 h -9.75 v -3 h -9.75 v 3 h -9.75 v -3 h -9.75 v 3 h -9.75 v -3 h -9.75 v 3 h -9.75 z" />
  <path
     style="fill:none;fill-opacity:0;fill-rule:nonzero;stroke:#000000;stroke-width:0.26458332;stroke-linecap:butt;stroke-miterlimit:4;stroke-dasharray:none;stroke-opacity:1;paint-order:fill markers stroke"
     d="m 35.785192,564.65887 h 8.22624 c 0.480702,0 0.867693,0.38699 0.867693,0.8677 v 8.22624 c 0,0.4807 -0.386991,0.86769 -0.867693,0.86769 h -8.22624 c -0.480702,0 -0.867693,-0.38699 -0.867693,-0.86769 v -8.22624 c 0,-0.48071 0.386991,-0.8677 0.867693,-0.8677 z"
     id="rect4548"
     inkscape:connector-curvature="0" />
  <path
     style="fill:none;fill-opacity:0;fill-rule:nonzero;stroke:#000000;stroke-width:0.26458332;stroke-linecap:butt;stroke-miterlimit:4;stroke-dasharray:none;stroke-opacity:1;paint-order:fill markers stroke"
     d="m 358.71154,253.42577 a 4.9353647,4.935349 0 0 1 -4.8994,4.93522 4.9353647,4.935349 0 0 1 -4.9708,-4.86329 4.9353647,4.935349 0 0 1 4.82696,-5.0061 4.9353647,4.935349 0 0 1 5.04115,4.79034"
     id="path4580"
     inkscape:connector-curvature="0" />
  <path
     style="fill:none;fill-opacity:0;fill-rule:nonzero;stroke:#000000;stroke-width:0.26458332;stroke-linecap:butt;stroke-miterlimit:4;stroke-dasharray:none;stroke-opacity:1;paint-order:fill markers stroke"
     d="m 331.71156,253.7766 a 4.9353647,4.935349 0 0 1 -4.8994,4.93522 4.9353647,4.935349 0 0 1 -4.97081,-4.86329 4.9353647,4.935349 0 0 1 4.82696,-5.0061 4.9353647,4.935349 0 0 1 5.04115,4.79034"
     id="path4580-9"
     inkscape:connector-curvature="0" />
  <path
     style="fill:none;fill-opacity:0;fill-rule:nonzero;stroke:#000000;stroke-width:0.26458332;stroke-linecap:butt;stroke-miterlimit:4;stroke-dasharray:none;stroke-opacity:1;paint-order:fill markers stroke"
     d="m 319.28283,537.69214 h 8.66334 c 0.35763,0 0.64553,0.28791 0.64553,0.64553 v 13.66334 c 0,0.35763 -0.2879,0.64553 -0.64553,0.64553 h -8.66334 c -0.35762,0 -0.64553,-0.2879 -0.64553,-0.64553 v -13.66334 c 0,-0.35762 0.28791,-0.64553 0.64553,-0.64553 z"
     id="rect4597" />
  <path
     style="fill:none;fill-opacity:0;fill-rule:nonzero;stroke:#000000;stroke-width:0.26458333;stroke-linecap:butt;stroke-miterlimit:4;stroke-dasharray:none;stroke-opacity:1;paint-order:fill markers stroke"
     d="m 374.14616,532.75611 h 16.25028 c 0.99061,0 1.7881,1.11649 1.7881,2.50334 v 14.8198 c 0,1.38686 -0.79749,2.50334 -1.7881,2.50334 h -16.25028 c -0.99061,0 -1.7881,-1.11648 -1.7881,-2.50334 v -14.8198 c 0,-1.38685 0.79749,-2.50334 1.7881,-2.50334 z"
     id="rect4602"
     inkscape:connector-curvature="0" />
  <path
     style="fill:none;fill-opacity:0;fill-rule:nonzero;stroke:#000000;stroke-width:0.26458332;stroke-linecap:butt;stroke-miterlimit:4;stroke-dasharray:none;stroke-opacity:1;paint-order:fill markers stroke"
     d="m 97.633001,568.22477 a 5.946229,5.9462402 0 0 1 -5.9028,5.94609 5.946229,5.9462402 0 0 1 -5.989055,-5.85944 5.946229,5.9462402 0 0 1 5.815655,-6.03146 5.946229,5.9462402 0 0 1 6.07364,5.77154"
     id="path4605"
     inkscape:connector-curvature="0" />
</svg>
